<svg width="1200" height="800" viewBox="0 0 1200 800" xmlns="http://www.w3.org/2000/svg">
<rect x="0" y="0" width="1200" height="800" opacity="1" fill="#FFFFFF" stroke="none"/>
<line opacity="0.1" stroke="#000000" stroke-width="1" x1="91" y1="722" x2="91" y2="27"/>
<line opacity="0.1" stroke="#000000" stroke-width="1" x1="108" y1="722" x2="108" y2="27"/>
<line opacity="0.1" stroke="#000000" stroke-width="1" x1="125" y1="722" x2="125" y2="27"/>
<line opacity="0.1" stroke="#000000" stroke-width="1" x1="141" y1="722" x2="141" y2="27"/>
<line opacity="0.1" stroke="#000000" stroke-width="1" x1="158" y1="722" x2="158" y2="27"/>
<line opacity="0.1" stroke="#000000" stroke-width="1" x1="174" y1="722" x2="174" y2="27"/>
<line opacity="0.1" stroke="#000000" stroke-width="1" x1="191" y1="722" x2="191" y2="27"/>
<line opacity="0.1" stroke="#000000" stroke-width="1" x1="207" y1="722" x2="207" y2="27"/>
<line opacity="0.1" stroke="#000000" stroke-width="1" x1="224" y1="722" x2="224" y2="27"/>
<line opacity="0.1" stroke="#000000" stroke-width="1" x1="241" y1="722" x2="241" y2="27"/>
<line opacity="0.1" stroke="#000000" stroke-width="1" x1="257" y1="722" x2="257" y2="27"/>
<line opacity="0.1" stroke="#000000" stroke-width="1" x1="274" y1="722" x2="274" y2="27"/>
<line opacity="0.1" stroke="#000000" stroke-width="1" x1="290" y1="722" x2="290" y2="27"/>
<line opacity="0.1" stroke="#000000" stroke-width="1" x1="307" y1="722" x2="307" y2="27"/>
<line opacity="0.1" stroke="#000000" stroke-width="1" x1="323" y1="722" x2="323" y2="27"/>
<line opacity="0.1" stroke="#000000" stroke-width="1" x1="340" y1="722" x2="340" y2="27"/>
<line opacity="0.1" stroke="#000000" stroke-width="1" x1="357" y1="722" x2="357" y2="27"/>
<line opacity="0.1" stroke="#000000" stroke-width="1" x1="373" y1="722" x2="373" y2="27"/>
<line opacity="0.1" stroke="#000000" stroke-width="1" x1="390" y1="722" x2="390" y2="27"/>
<line opacity="0.1" stroke="#000000" stroke-width="1" x1="406" y1="722" x2="406" y2="27"/>
<line opacity="0.1" stroke="#000000" stroke-width="1" x1="423" y1="722" x2="423" y2="27"/>
<line opacity="0.1" stroke="#000000" stroke-width="1" x1="439" y1="722" x2="439" y2="27"/>
<line opacity="0.1" stroke="#000000" stroke-width="1" x1="456" y1="722" x2="456" y2="27"/>
<line opacity="0.1" stroke="#000000" stroke-width="1" x1="473" y1="722" x2="473" y2="27"/>
<line opacity="0.1" stroke="#000000" stroke-width="1" x1="489" y1="722" x2="489" y2="27"/>
<line opacity="0.1" stroke="#000000" stroke-width="1" x1="506" y1="722" x2="506" y2="27"/>
<line opacity="0.1" stroke="#000000" stroke-width="1" x1="522" y1="722" x2="522" y2="27"/>
<line opacity="0.1" stroke="#000000" stroke-width="1" x1="539" y1="722" x2="539" y2="27"/>
<line opacity="0.1" stroke="#000000" stroke-width="1" x1="556" y1="722" x2="556" y2="27"/>
<line opacity="0.1" stroke="#000000" stroke-width="1" x1="572" y1="722" x2="572" y2="27"/>
<line opacity="0.1" stroke="#000000" stroke-width="1" x1="589" y1="722" x2="589" y2="27"/>
<line opacity="0.1" stroke="#000000" stroke-width="1" x1="605" y1="722" x2="605" y2="27"/>
<line opacity="0.1" stroke="#000000" stroke-width="1" x1="622" y1="722" x2="622" y2="27"/>
<line opacity="0.1" stroke="#000000" stroke-width="1" x1="638" y1="722" x2="638" y2="27"/>
<line opacity="0.1" stroke="#000000" stroke-width="1" x1="655" y1="722" x2="655" y2="27"/>
<line opacity="0.1" stroke="#000000" stroke-width="1" x1="672" y1="722" x2="672" y2="27"/>
<line opacity="0.1" stroke="#000000" stroke-width="1" x1="688" y1="722" x2="688" y2="27"/>
<line opacity="0.1" stroke="#000000" stroke-width="1" x1="705" y1="722" x2="705" y2="27"/>
<line opacity="0.1" stroke="#000000" stroke-width="1" x1="721" y1="722" x2="721" y2="27"/>
<line opacity="0.1" stroke="#000000" stroke-width="1" x1="738" y1="722" x2="738" y2="27"/>
<line opacity="0.1" stroke="#000000" stroke-width="1" x1="754" y1="722" x2="754" y2="27"/>
<line opacity="0.1" stroke="#000000" stroke-width="1" x1="771" y1="722" x2="771" y2="27"/>
<line opacity="0.1" stroke="#000000" stroke-width="1" x1="788" y1="722" x2="788" y2="27"/>
<line opacity="0.1" stroke="#000000" stroke-width="1" x1="804" y1="722" x2="804" y2="27"/>
<line opacity="0.1" stroke="#000000" stroke-width="1" x1="821" y1="722" x2="821" y2="27"/>
<line opacity="0.1" stroke="#000000" stroke-width="1" x1="837" y1="722" x2="837" y2="27"/>
<line opacity="0.1" stroke="#000000" stroke-width="1" x1="854" y1="722" x2="854" y2="27"/>
<line opacity="0.1" stroke="#000000" stroke-width="1" x1="870" y1="722" x2="870" y2="27"/>
<line opacity="0.1" stroke="#000000" stroke-width="1" x1="887" y1="722" x2="887" y2="27"/>
<line opacity="0.1" stroke="#000000" stroke-width="1" x1="904" y1="722" x2="904" y2="27"/>
<line opacity="0.1" stroke="#000000" stroke-width="1" x1="920" y1="722" x2="920" y2="27"/>
<line opacity="0.1" stroke="#000000" stroke-width="1" x1="937" y1="722" x2="937" y2="27"/>
<line opacity="0.1" stroke="#000000" stroke-width="1" x1="953" y1="722" x2="953" y2="27"/>
<line opacity="0.1" stroke="#000000" stroke-width="1" x1="970" y1="722" x2="970" y2="27"/>
<line opacity="0.1" stroke="#000000" stroke-width="1" x1="986" y1="722" x2="986" y2="27"/>
<line opacity="0.1" stroke="#000000" stroke-width="1" x1="1003" y1="722" x2="1003" y2="27"/>
<line opacity="0.1" stroke="#000000" stroke-width="1" x1="1020" y1="722" x2="1020" y2="27"/>
<line opacity="0.1" stroke="#000000" stroke-width="1" x1="1036" y1="722" x2="1036" y2="27"/>
<line opacity="0.1" stroke="#000000" stroke-width="1" x1="1053" y1="722" x2="1053" y2="27"/>
<line opacity="0.1" stroke="#000000" stroke-width="1" x1="1069" y1="722" x2="1069" y2="27"/>
<line opacity="0.1" stroke="#000000" stroke-width="1" x1="1086" y1="722" x2="1086" y2="27"/>
<line opacity="0.1" stroke="#000000" stroke-width="1" x1="1102" y1="722" x2="1102" y2="27"/>
<line opacity="0.1" stroke="#000000" stroke-width="1" x1="1119" y1="722" x2="1119" y2="27"/>
<line opacity="0.1" stroke="#000000" stroke-width="1" x1="1136" y1="722" x2="1136" y2="27"/>
<line opacity="0.1" stroke="#000000" stroke-width="1" x1="1152" y1="722" x2="1152" y2="27"/>
<line opacity="0.1" stroke="#000000" stroke-width="1" x1="1169" y1="722" x2="1169" y2="27"/>
<line opacity="0.1" stroke="#000000" stroke-width="1" x1="77" y1="720" x2="1172" y2="720"/>
<line opacity="0.1" stroke="#000000" stroke-width="1" x1="77" y1="710" x2="1172" y2="710"/>
<line opacity="0.1" stroke="#000000" stroke-width="1" x1="77" y1="700" x2="1172" y2="700"/>
<line opacity="0.1" stroke="#000000" stroke-width="1" x1="77" y1="690" x2="1172" y2="690"/>
<line opacity="0.1" stroke="#000000" stroke-width="1" x1="77" y1="680" x2="1172" y2="680"/>
<line opacity="0.1" stroke="#000000" stroke-width="1" x1="77" y1="670" x2="1172" y2="670"/>
<line opacity="0.1" stroke="#000000" stroke-width="1" x1="77" y1="660" x2="1172" y2="660"/>
<line opacity="0.1" stroke="#000000" stroke-width="1" x1="77" y1="650" x2="1172" y2="650"/>
<line opacity="0.1" stroke="#000000" stroke-width="1" x1="77" y1="640" x2="1172" y2="640"/>
<line opacity="0.1" stroke="#000000" stroke-width="1" x1="77" y1="629" x2="1172" y2="629"/>
<line opacity="0.1" stroke="#000000" stroke-width="1" x1="77" y1="619" x2="1172" y2="619"/>
<line opacity="0.1" stroke="#000000" stroke-width="1" x1="77" y1="609" x2="1172" y2="609"/>
<line opacity="0.1" stroke="#000000" stroke-width="1" x1="77" y1="599" x2="1172" y2="599"/>
<line opacity="0.1" stroke="#000000" stroke-width="1" x1="77" y1="589" x2="1172" y2="589"/>
<line opacity="0.1" stroke="#000000" stroke-width="1" x1="77" y1="579" x2="1172" y2="579"/>
<line opacity="0.1" stroke="#000000" stroke-width="1" x1="77" y1="569" x2="1172" y2="569"/>
<line opacity="0.1" stroke="#000000" stroke-width="1" x1="77" y1="559" x2="1172" y2="559"/>
<line opacity="0.1" stroke="#000000" stroke-width="1" x1="77" y1="549" x2="1172" y2="549"/>
<line opacity="0.1" stroke="#000000" stroke-width="1" x1="77" y1="539" x2="1172" y2="539"/>
<line opacity="0.1" stroke="#000000" stroke-width="1" x1="77" y1="529" x2="1172" y2="529"/>
<line opacity="0.1" stroke="#000000" stroke-width="1" x1="77" y1="518" x2="1172" y2="518"/>
<line opacity="0.1" stroke="#000000" stroke-width="1" x1="77" y1="508" x2="1172" y2="508"/>
<line opacity="0.1" stroke="#000000" stroke-width="1" x1="77" y1="498" x2="1172" y2="498"/>
<line opacity="0.1" stroke="#000000" stroke-width="1" x1="77" y1="488" x2="1172" y2="488"/>
<line opacity="0.1" stroke="#000000" stroke-width="1" x1="77" y1="478" x2="1172" y2="478"/>
<line opacity="0.1" stroke="#000000" stroke-width="1" x1="77" y1="468" x2="1172" y2="468"/>
<line opacity="0.1" stroke="#000000" stroke-width="1" x1="77" y1="458" x2="1172" y2="458"/>
<line opacity="0.1" stroke="#000000" stroke-width="1" x1="77" y1="448" x2="1172" y2="448"/>
<line opacity="0.1" stroke="#000000" stroke-width="1" x1="77" y1="438" x2="1172" y2="438"/>
<line opacity="0.1" stroke="#000000" stroke-width="1" x1="77" y1="428" x2="1172" y2="428"/>
<line opacity="0.1" stroke="#000000" stroke-width="1" x1="77" y1="418" x2="1172" y2="418"/>
<line opacity="0.1" stroke="#000000" stroke-width="1" x1="77" y1="408" x2="1172" y2="408"/>
<line opacity="0.1" stroke="#000000" stroke-width="1" x1="77" y1="397" x2="1172" y2="397"/>
<line opacity="0.1" stroke="#000000" stroke-width="1" x1="77" y1="387" x2="1172" y2="387"/>
<line opacity="0.1" stroke="#000000" stroke-width="1" x1="77" y1="377" x2="1172" y2="377"/>
<line opacity="0.1" stroke="#000000" stroke-width="1" x1="77" y1="367" x2="1172" y2="367"/>
<line opacity="0.1" stroke="#000000" stroke-width="1" x1="77" y1="357" x2="1172" y2="357"/>
<line opacity="0.1" stroke="#000000" stroke-width="1" x1="77" y1="347" x2="1172" y2="347"/>
<line opacity="0.1" stroke="#000000" stroke-width="1" x1="77" y1="337" x2="1172" y2="337"/>
<line opacity="0.1" stroke="#000000" stroke-width="1" x1="77" y1="327" x2="1172" y2="327"/>
<line opacity="0.1" stroke="#000000" stroke-width="1" x1="77" y1="317" x2="1172" y2="317"/>
<line opacity="0.1" stroke="#000000" stroke-width="1" x1="77" y1="307" x2="1172" y2="307"/>
<line opacity="0.1" stroke="#000000" stroke-width="1" x1="77" y1="297" x2="1172" y2="297"/>
<line opacity="0.1" stroke="#000000" stroke-width="1" x1="77" y1="287" x2="1172" y2="287"/>
<line opacity="0.1" stroke="#000000" stroke-width="1" x1="77" y1="276" x2="1172" y2="276"/>
<line opacity="0.1" stroke="#000000" stroke-width="1" x1="77" y1="266" x2="1172" y2="266"/>
<line opacity="0.1" stroke="#000000" stroke-width="1" x1="77" y1="256" x2="1172" y2="256"/>
<line opacity="0.1" stroke="#000000" stroke-width="1" x1="77" y1="246" x2="1172" y2="246"/>
<line opacity="0.1" stroke="#000000" stroke-width="1" x1="77" y1="236" x2="1172" y2="236"/>
<line opacity="0.1" stroke="#000000" stroke-width="1" x1="77" y1="226" x2="1172" y2="226"/>
<line opacity="0.1" stroke="#000000" stroke-width="1" x1="77" y1="216" x2="1172" y2="216"/>
<line opacity="0.1" stroke="#000000" stroke-width="1" x1="77" y1="206" x2="1172" y2="206"/>
<line opacity="0.1" stroke="#000000" stroke-width="1" x1="77" y1="196" x2="1172" y2="196"/>
<line opacity="0.1" stroke="#000000" stroke-width="1" x1="77" y1="186" x2="1172" y2="186"/>
<line opacity="0.1" stroke="#000000" stroke-width="1" x1="77" y1="176" x2="1172" y2="176"/>
<line opacity="0.1" stroke="#000000" stroke-width="1" x1="77" y1="166" x2="1172" y2="166"/>
<line opacity="0.1" stroke="#000000" stroke-width="1" x1="77" y1="155" x2="1172" y2="155"/>
<line opacity="0.1" stroke="#000000" stroke-width="1" x1="77" y1="145" x2="1172" y2="145"/>
<line opacity="0.1" stroke="#000000" stroke-width="1" x1="77" y1="135" x2="1172" y2="135"/>
<line opacity="0.1" stroke="#000000" stroke-width="1" x1="77" y1="125" x2="1172" y2="125"/>
<line opacity="0.1" stroke="#000000" stroke-width="1" x1="77" y1="115" x2="1172" y2="115"/>
<line opacity="0.1" stroke="#000000" stroke-width="1" x1="77" y1="105" x2="1172" y2="105"/>
<line opacity="0.1" stroke="#000000" stroke-width="1" x1="77" y1="95" x2="1172" y2="95"/>
<line opacity="0.1" stroke="#000000" stroke-width="1" x1="77" y1="85" x2="1172" y2="85"/>
<line opacity="0.1" stroke="#000000" stroke-width="1" x1="77" y1="75" x2="1172" y2="75"/>
<line opacity="0.1" stroke="#000000" stroke-width="1" x1="77" y1="65" x2="1172" y2="65"/>
<line opacity="0.1" stroke="#000000" stroke-width="1" x1="77" y1="55" x2="1172" y2="55"/>
<line opacity="0.1" stroke="#000000" stroke-width="1" x1="77" y1="45" x2="1172" y2="45"/>
<line opacity="0.1" stroke="#000000" stroke-width="1" x1="77" y1="34" x2="1172" y2="34"/>
<line opacity="0.2" stroke="#000000" stroke-width="1" x1="241" y1="722" x2="241" y2="27"/>
<line opacity="0.2" stroke="#000000" stroke-width="1" x1="406" y1="722" x2="406" y2="27"/>
<line opacity="0.2" stroke="#000000" stroke-width="1" x1="572" y1="722" x2="572" y2="27"/>
<line opacity="0.2" stroke="#000000" stroke-width="1" x1="738" y1="722" x2="738" y2="27"/>
<line opacity="0.2" stroke="#000000" stroke-width="1" x1="904" y1="722" x2="904" y2="27"/>
<line opacity="0.2" stroke="#000000" stroke-width="1" x1="1069" y1="722" x2="1069" y2="27"/>
<line opacity="0.2" stroke="#000000" stroke-width="1" x1="77" y1="710" x2="1172" y2="710"/>
<line opacity="0.2" stroke="#000000" stroke-width="1" x1="77" y1="609" x2="1172" y2="609"/>
<line opacity="0.2" stroke="#000000" stroke-width="1" x1="77" y1="508" x2="1172" y2="508"/>
<line opacity="0.2" stroke="#000000" stroke-width="1" x1="77" y1="408" x2="1172" y2="408"/>
<line opacity="0.2" stroke="#000000" stroke-width="1" x1="77" y1="307" x2="1172" y2="307"/>
<line opacity="0.2" stroke="#000000" stroke-width="1" x1="77" y1="206" x2="1172" y2="206"/>
<line opacity="0.2" stroke="#000000" stroke-width="1" x1="77" y1="105" x2="1172" y2="105"/>
<polyline fill="none" opacity="1" stroke="#000000" stroke-width="1" points="76,27 76,722 "/>
<text x="67" y="710" dy="0.5ex" text-anchor="end" font-family="sans-serif" font-size="9.67741935483871" opacity="1" fill="#000000">
-80000.0
</text>
<polyline fill="none" opacity="1" stroke="#000000" stroke-width="1" points="71,710 76,710 "/>
<text x="67" y="609" dy="0.5ex" text-anchor="end" font-family="sans-serif" font-size="9.67741935483871" opacity="1" fill="#000000">
-70000.0
</text>
<polyline fill="none" opacity="1" stroke="#000000" stroke-width="1" points="71,609 76,609 "/>
<text x="67" y="508" dy="0.5ex" text-anchor="end" font-family="sans-serif" font-size="9.67741935483871" opacity="1" fill="#000000">
-60000.0
</text>
<polyline fill="none" opacity="1" stroke="#000000" stroke-width="1" points="71,508 76,508 "/>
<text x="67" y="408" dy="0.5ex" text-anchor="end" font-family="sans-serif" font-size="9.67741935483871" opacity="1" fill="#000000">
-50000.0
</text>
<polyline fill="none" opacity="1" stroke="#000000" stroke-width="1" points="71,408 76,408 "/>
<text x="67" y="307" dy="0.5ex" text-anchor="end" font-family="sans-serif" font-size="9.67741935483871" opacity="1" fill="#000000">
-40000.0
</text>
<polyline fill="none" opacity="1" stroke="#000000" stroke-width="1" points="71,307 76,307 "/>
<text x="67" y="206" dy="0.5ex" text-anchor="end" font-family="sans-serif" font-size="9.67741935483871" opacity="1" fill="#000000">
-30000.0
</text>
<polyline fill="none" opacity="1" stroke="#000000" stroke-width="1" points="71,206 76,206 "/>
<text x="67" y="105" dy="0.5ex" text-anchor="end" font-family="sans-serif" font-size="9.67741935483871" opacity="1" fill="#000000">
-20000.0
</text>
<polyline fill="none" opacity="1" stroke="#000000" stroke-width="1" points="71,105 76,105 "/>
<polyline fill="none" opacity="1" stroke="#000000" stroke-width="1" points="77,723 1172,723 "/>
<text x="241" y="733" dy="0.76em" text-anchor="middle" font-family="sans-serif" font-size="9.67741935483871" opacity="1" fill="#000000">
5000.0
</text>
<polyline fill="none" opacity="1" stroke="#000000" stroke-width="1" points="241,723 241,728 "/>
<text x="406" y="733" dy="0.76em" text-anchor="middle" font-family="sans-serif" font-size="9.67741935483871" opacity="1" fill="#000000">
10000.0
</text>
<polyline fill="none" opacity="1" stroke="#000000" stroke-width="1" points="406,723 406,728 "/>
<text x="572" y="733" dy="0.76em" text-anchor="middle" font-family="sans-serif" font-size="9.67741935483871" opacity="1" fill="#000000">
15000.0
</text>
<polyline fill="none" opacity="1" stroke="#000000" stroke-width="1" points="572,723 572,728 "/>
<text x="738" y="733" dy="0.76em" text-anchor="middle" font-family="sans-serif" font-size="9.67741935483871" opacity="1" fill="#000000">
20000.0
</text>
<polyline fill="none" opacity="1" stroke="#000000" stroke-width="1" points="738,723 738,728 "/>
<text x="904" y="733" dy="0.76em" text-anchor="middle" font-family="sans-serif" font-size="9.67741935483871" opacity="1" fill="#000000">
25000.0
</text>
<polyline fill="none" opacity="1" stroke="#000000" stroke-width="1" points="904,723 904,728 "/>
<text x="1069" y="733" dy="0.76em" text-anchor="middle" font-family="sans-serif" font-size="9.67741935483871" opacity="1" fill="#000000">
30000.0
</text>
<polyline fill="none" opacity="1" stroke="#000000" stroke-width="1" points="1069,723 1069,728 "/>
<polyline fill="none" opacity="1" stroke="#000000" stroke-width="1" points="77,41 78,43 80,45 80,45 82,46 83,48 83,48 85,48 87,51 87,51 88,51 90,54 90,54 92,54 93,56 93,56 95,56 97,59 97,59 98,59 100,61 100,61 102,61 103,64 103,64 105,65 107,68 107,68 108,68 110,70 110,70 112,70 113,73 113,73 115,73 117,75 117,75 118,75 120,78 120,78 122,78 123,80 123,80 125,80 127,82 127,82 128,82 130,84 130,84 132,84 133,86 133,86 135,86 137,89 137,89 138,89 140,91 140,91 142,91 143,93 143,93 145,93 147,97 147,97 148,97 150,100 150,100 152,100 153,102 154,102 155,102 157,104 157,104 159,104 160,106 160,106 162,106 164,108 164,108 165,108 167,111 167,111 169,111 170,115 170,115 172,115 174,117 174,117 175,117 177,119 177,119 179,119 180,121 180,121 182,121 184,123 184,123 185,123 187,125 187,125 189,125 190,127 190,127 192,127 194,129 194,129 195,129 197,131 197,131 199,131 200,134 200,134 202,134 204,136 204,136 205,136 207,139 207,139 209,139 210,141 210,141 212,141 214,143 214,143 215,143 217,146 217,146 219,146 220,149 220,149 222,149 224,151 224,151 225,151 227,153 227,153 229,153 230,156 231,156 232,156 234,159 234,159 236,159 237,161 237,161 239,161 241,163 241,163 242,163 244,165 244,165 246,165 247,167 247,167 249,167 251,170 251,170 252,170 254,173 254,173 256,173 257,176 257,176 259,176 261,178 261,178 262,178 264,181 264,181 266,181 267,185 267,185 269,185 271,186 271,186 272,186 274,190 274,190 276,190 277,193 277,193 279,193 281,196 281,196 282,196 284,198 284,198 286,198 287,201 287,201 289,201 291,204 291,204 292,204 294,207 294,207 296,207 297,209 297,209 299,209 301,211 301,211 302,211 304,214 304,214 306,214 307,216 308,216 309,216 311,218 311,218 313,218 314,219 314,219 316,219 318,221 318,221 319,221 321,224 321,224 323,224 324,226 324,226 326,226 328,229 328,229 329,229 331,229 331,229 333,229 334,233 334,233 336,233 338,235 338,235 339,235 341,237 341,237 343,237 344,240 344,240 346,240 348,242 348,242 349,242 351,245 351,245 353,245 354,247 354,247 356,247 358,249 358,249 359,249 361,252 361,252 363,252 364,254 364,254 366,254 368,256 368,256 369,256 371,258 371,258 373,258 374,260 374,260 376,260 378,262 378,262 379,262 381,263 381,263 383,263 384,265 385,265 386,265 388,267 388,267 390,267 391,269 391,269 393,269 395,272 395,272 396,272 398,273 398,273 400,273 401,275 401,275 403,275 405,277 405,277 406,277 408,279 408,279 410,279 411,282 411,282 413,282 415,284 415,284 416,284 418,287 418,287 420,287 421,289 421,289 423,289 425,291 425,291 426,291 428,293 428,293 430,293 431,295 431,295 433,295 435,298 435,298 436,298 438,300 438,300 440,300 441,301 441,301 443,301 445,304 445,304 446,304 448,306 448,306 450,306 451,308 451,308 453,308 455,311 455,311 456,311 458,312 458,312 460,312 461,313 461,313 463,313 465,315 465,315 466,315 468,317 468,317 470,317 471,320 471,320 473,320 475,321 475,321 476,322 478,323 478,324 480,324 481,326 481,326 483,327 484,328 485,328 486,328 488,330 488,330 489,330 491,332 491,332 493,333 494,334 495,335 496,335 497,336 498,337 499,337 501,340 501,340 502,340 504,342 504,342 506,342 507,343 508,344 509,344 510,345 511,346 512,346 514,347 514,347 515,348 517,348 517,348 519,349 520,349 521,350 522,350 523,352 524,352 525,352 526,354 527,354 528,354 530,355 530,356 531,356 533,357 533,357 535,358 536,359 537,359 538,360 539,361 540,361 541,361 542,362 543,363 544,364 546,364 546,365 548,365 549,367 550,367 551,368 552,369 553,369 554,370 556,371 556,371 558,372 559,373 560,374 561,374 562,376 563,377 564,377 566,379 566,379 568,379 569,381 570,382 571,383 572,384 573,385 574,386 575,386 576,387 578,388 579,389 580,390 581,391 582,391 583,392 584,392 585,393 586,394 588,394 589,395 590,396 591,396 592,397 593,397 594,398 595,399 596,400 597,400 599,401 599,402 601,402 602,403 603,403 604,403 605,404 606,404 607,405 608,406 609,406 611,407 612,408 613,409 614,409 615,410 616,410 617,410 618,411 619,411 620,412 622,413 622,414 624,414 625,415 626,416 627,416 628,417 629,418 630,418 631,419 632,419 634,420 635,421 636,422 637,423 638,425 639,425 640,426 641,427 642,427 643,428 645,428 646,429 647,430 648,430 649,432 650,432 651,432 652,433 653,433 655,434 656,434 657,435 658,435 659,437 660,437 661,438 662,439 663,439 665,440 666,440 667,441 668,441 669,442 670,442 671,443 672,444 673,444 675,445 675,446 677,446 678,447 679,448 680,448 681,449 682,449 683,450 685,450 685,451 687,451 688,451 689,452 690,452 691,453 692,453 693,454 694,455 695,455 697,456 698,457 699,457 700,458 701,459 702,460 703,461 704,462 705,462 707,462 708,463 709,463 710,464 711,465 712,465 713,465 714,466 715,467 716,468 718,468 719,469 720,470 721,471 722,471 723,471 724,473 725,474 726,474 728,474 729,475 730,476 731,476 732,477 733,478 734,478 735,478 736,479 738,479 739,480 740,481 741,481 742,482 743,483 744,484 745,484 746,484 748,486 749,487 750,487 751,488 752,488 753,489 754,490 755,491 756,491 758,492 758,492 760,493 761,493 762,494 763,495 764,495 765,496 766,496 767,497 768,497 770,497 771,498 772,498 773,499 774,499 775,499 776,500 777,501 778,502 780,502 781,503 782,503 783,503 784,504 785,505 786,505 788,506 788,506 790,506 791,507 792,508 793,508 794,509 795,509 796,510 798,510 799,511 800,512 801,512 802,512 803,513 804,514 805,514 806,515 808,516 809,516 810,517 811,518 812,518 813,519 814,519 815,520 816,521 817,521 818,522 820,522 821,523 822,523 823,524 824,524 825,525 826,526 827,526 828,527 829,527 830,528 831,528 833,530 834,531 835,531 836,532 837,532 838,533 839,533 840,534 841,535 842,535 843,536 844,536 845,537 847,537 847,538 849,538 850,539 851,539 852,539 853,540 854,540 855,541 856,541 857,542 858,543 859,543 860,544 862,544 863,546 864,546 865,546 866,547 867,547 868,548 869,548 870,549 872,549 873,549 874,550 875,550 876,551 877,551 878,552 879,552 880,552 882,553 883,553 884,554 885,555 886,556 887,557 888,557 889,557 890,558 891,558 893,559 893,559 895,560 896,560 897,561 898,561 899,562 900,562 901,563 902,564 903,564 905,565 906,566 907,566 908,567 909,567 910,568 911,568 912,569 913,569 915,570 915,570 917,571 918,571 919,572 920,573 921,574 922,574 923,575 924,575 925,576 926,576 928,577 929,577 930,578 931,579 932,580 933,581 934,581 935,582 936,582 938,583 939,584 939,584 941,584 942,585 943,585 944,586 945,587 946,587 947,587 948,588 949,588 951,588 952,589 953,589 954,590 955,591 956,591 957,591 958,591 959,592 960,592 961,592 963,593 964,593 965,593 966,593 967,594 968,594 969,595 970,596 971,597 972,597 974,598 975,598 976,599 977,600 978,601 979,602 980,602 981,603 982,603 984,604 985,605 986,605 987,606 988,606 989,607 990,607 991,608 992,608 994,609 995,609 995,609 997,610 998,611 999,611 1000,612 1001,613 1002,614 1003,614 1004,615 1005,616 1007,616 1008,617 1009,617 1010,618 1011,619 1012,619 1013,619 1014,620 1015,621 1017,622 1018,623 1019,623 1020,624 1021,625 1022,625 1023,626 1024,627 1025,627 1027,628 1028,629 1029,629 1030,629 1031,629 1032,630 1033,630 1034,631 1035,631 1037,631 1038,632 1039,632 1040,632 1041,633 1042,634 1043,634 1044,635 1045,635 1047,636 1048,636 1049,637 1050,637 1051,638 1052,638 1053,638 1054,640 1055,640 1057,640 1058,641 1059,641 1060,642 1061,643 1062,643 1063,644 1064,645 1065,645 1066,645 1068,646 1068,646 1070,647 1071,647 1072,648 "/>
<polyline fill="none" opacity="1" stroke="#FF0000" stroke-width="1" points="77,38 78,39 80,41 80,41 82,43 83,47 83,47 85,47 87,50 87,50 88,50 90,52 90,52 92,52 93,54 93,54 95,55 97,57 97,57 98,57 100,59 100,59 102,59 103,62 103,62 105,62 107,64 107,64 108,64 110,66 110,66 112,66 113,69 113,69 115,69 117,71 117,71 118,71 120,74 120,74 122,74 123,76 123,76 125,76 127,79 127,79 128,79 130,82 130,82 132,82 133,84 133,84 135,84 137,90 137,90 138,90 140,91 140,91 142,91 143,94 143,94 145,94 147,97 147,97 148,97 150,100 150,100 152,100 153,102 154,102 155,102 157,105 157,105 159,105 160,107 160,107 162,107 164,110 164,110 165,110 167,112 167,112 169,112 170,114 170,114 172,114 174,118 174,118 175,118 177,119 177,119 179,119 180,121 180,121 182,121 184,123 184,123 185,123 187,125 187,125 189,125 190,128 190,128 192,128 194,130 194,130 195,130 197,132 197,132 199,132 200,135 200,135 202,135 204,137 204,137 205,137 207,140 207,140 209,140 210,142 210,142 212,142 214,145 214,145 215,145 217,148 217,148 219,148 220,150 220,150 222,150 224,152 224,152 225,152 227,157 227,157 229,157 230,160 231,160 232,160 234,162 234,162 236,162 237,165 237,165 239,165 241,168 241,168 242,168 244,171 244,171 246,171 247,174 247,174 249,174 251,176 251,176 252,176 254,178 254,178 256,178 257,180 257,180 259,180 261,183 261,183 262,183 264,186 264,186 266,186 267,188 267,188 269,188 271,190 271,190 272,190 274,192 274,192 276,192 277,194 277,194 279,194 281,196 281,196 282,196 284,198 284,198 286,198 287,200 287,200 289,200 291,203 291,203 292,203 294,206 294,206 296,206 297,208 297,208 299,208 301,211 301,211 302,211 304,213 304,213 306,213 307,216 308,216 309,216 311,218 311,218 313,218 314,220 314,220 316,220 318,223 318,223 319,223 321,224 321,224 323,224 324,227 324,227 326,227 328,229 328,229 329,229 331,232 331,232 333,232 334,234 334,234 336,234 338,237 338,237 339,237 341,239 341,239 343,239 344,242 344,242 346,242 348,244 348,244 349,244 351,247 351,247 353,247 354,250 354,250 356,250 358,252 358,252 359,252 361,255 361,255 363,255 364,257 364,257 366,257 368,260 368,260 369,260 371,263 371,263 373,263 374,265 374,265 376,265 378,267 378,267 379,267 381,270 381,270 383,270 384,272 385,272 386,272 388,275 388,275 390,275 391,277 391,277 393,277 395,279 395,279 396,279 398,282 398,282 400,282 401,284 401,284 403,284 405,286 405,286 406,286 408,288 408,288 410,288 411,291 411,291 413,291 415,293 415,293 416,293 418,295 418,295 420,295 421,296 421,296 423,296 425,299 425,299 426,299 428,302 428,302 430,302 431,305 431,305 433,305 435,306 435,306 436,306 438,308 438,308 440,308 441,310 441,310 443,310 444,313 445,313 446,313 448,315 448,315 449,315 451,317 451,318 453,318 454,320 455,320 456,320 458,322 458,322 459,322 461,323 461,324 463,324 464,326 464,326 466,326 467,328 468,328 469,328 471,330 471,330 472,330 474,332 474,333 476,333 477,335 478,335 479,335 481,337 481,337 482,337 484,339 484,339 486,339 487,341 488,341 489,341 491,343 491,343 492,343 494,345 494,345 496,345 497,347 498,347 499,347 500,348 501,349 502,349 504,350 504,350 505,350 507,352 507,353 509,353 510,354 511,355 512,355 513,357 514,358 515,358 517,359 517,360 518,360 520,361 521,361 522,361 523,362 524,363 525,363 527,365 527,365 528,365 530,366 531,367 532,367 533,368 534,369 535,369 536,370 537,371 538,372 540,373 540,374 541,374 543,375 544,376 545,377 546,378 547,379 548,379 549,380 550,380 551,381 553,382 553,382 555,383 556,384 557,384 558,385 559,386 560,386 561,387 562,387 563,388 564,388 566,389 566,389 568,390 569,390 570,391 571,392 572,392 573,393 574,393 575,394 576,395 577,395 578,396 580,397 581,398 582,398 583,399 584,399 585,399 586,400 587,400 588,400 589,401 590,401 591,402 593,403 594,403 595,404 596,405 597,405 598,407 599,408 600,409 601,409 602,410 603,411 605,411 606,412 607,413 608,413 609,414 610,414 611,414 612,415 613,415 614,416 615,417 617,417 618,417 619,418 620,419 621,420 622,421 623,421 624,422 625,423 626,424 627,424 629,425 630,425 631,426 632,427 633,428 634,428 635,429 636,429 637,430 639,430 640,431 641,432 642,432 643,433 644,433 645,434 646,435 647,435 649,436 650,437 651,437 652,438 653,439 654,439 655,440 656,441 657,441 659,442 660,443 661,444 662,445 663,445 664,446 665,447 666,448 667,449 669,450 670,451 671,451 672,452 673,453 674,453 675,454 676,454 677,454 679,455 680,456 681,456 682,457 683,457 684,458 685,459 686,459 687,460 688,460 689,461 691,461 692,462 693,463 694,463 695,464 696,464 697,465 698,466 699,466 701,467 702,468 703,468 704,469 705,470 706,470 707,470 708,471 709,472 711,472 712,472 713,473 714,473 715,474 716,475 717,476 718,477 719,477 721,478 722,479 723,479 724,480 725,481 726,481 727,482 728,483 729,483 731,484 732,485 733,485 734,485 735,486 736,487 737,488 738,488 739,489 740,489 742,490 743,491 744,492 745,492 746,493 747,494 748,494 749,495 750,496 751,496 752,497 754,497 755,499 756,500 757,500 758,501 759,501 760,502 761,502 762,504 763,505 765,505 766,505 767,506 768,506 769,507 770,507 771,508 772,508 773,509 775,510 776,510 777,511 778,512 779,512 780,513 781,513 782,514 783,514 784,515 785,515 786,515 788,516 789,517 790,517 791,518 792,519 793,519 794,519 795,520 796,521 797,522 799,523 799,524 801,524 802,525 803,525 804,526 805,527 806,528 807,528 808,529 809,529 810,530 812,530 813,531 814,532 815,533 816,533 817,533 818,534 819,535 820,535 821,536 822,537 824,537 825,538 826,538 827,539 828,540 829,540 830,541 831,542 832,542 833,542 834,543 835,544 836,544 838,545 839,545 840,546 841,546 842,547 843,547 844,548 845,549 846,549 848,550 849,550 850,551 851,551 852,552 853,552 854,553 855,553 856,554 857,554 858,555 859,556 861,556 862,557 863,557 864,557 865,558 866,558 867,559 868,560 869,560 871,561 871,562 873,562 874,563 875,564 876,564 877,564 878,565 879,565 880,566 881,566 882,567 884,568 884,569 886,569 887,570 888,571 889,571 890,572 891,572 892,572 893,573 894,574 895,574 897,575 898,575 899,576 900,577 901,577 902,577 903,578 904,579 905,579 907,580 907,581 909,581 910,582 911,583 912,583 913,584 914,584 915,585 916,586 917,586 919,587 920,588 921,588 922,589 923,589 924,590 925,590 926,591 927,591 928,592 930,592 931,592 932,593 933,594 934,594 935,594 936,595 937,595 938,595 940,597 940,597 942,597 943,598 944,598 945,599 946,599 947,599 948,600 949,601 950,601 952,602 953,603 954,603 955,604 956,605 957,605 958,606 959,607 960,607 962,608 963,609 963,609 965,610 966,611 967,611 968,611 969,612 970,613 972,613 973,614 973,614 975,615 976,616 977,616 978,616 979,617 980,617 981,618 982,619 983,619 985,620 986,621 986,621 988,621 989,622 990,622 991,623 992,623 993,623 994,624 995,624 996,625 998,625 999,626 999,627 1001,627 1002,628 1003,628 1004,629 1005,630 1006,630 1007,631 1008,632 1009,632 1011,633 1012,633 1013,634 1014,634 1015,635 1016,635 1017,636 1018,637 1019,637 1021,637 1022,638 1023,638 1024,639 1025,640 1026,640 1027,640 1028,641 1029,641 1031,642 1032,642 1033,642 1034,643 1035,644 1036,644 1037,645 1038,645 1039,645 1041,646 1042,646 1043,646 1044,647 1045,649 1046,649 1047,649 1048,650 1049,650 1051,651 1052,652 1052,652 1054,652 1055,653 1056,653 1057,653 1058,654 1059,654 1060,655 1062,655 1062,656 1064,656 1065,658 1066,658 1067,659 1068,659 1069,660 1070,660 1071,661 "/>
<polyline fill="none" opacity="1" stroke="#00FF00" stroke-width="1" points="77,38 78,40 80,42 81,43 83,47 85,48 86,50 88,50 90,53 91,53 93,56 95,56 96,59 98,59 100,61 101,61 103,64 105,64 106,66 108,66 110,69 111,69 113,71 115,71 116,73 118,73 120,75 121,75 123,77 125,77 126,80 128,80 130,83 131,83 133,85 135,85 136,87 138,87 139,89 141,89 143,92 144,92 146,94 148,94 149,96 151,96 153,99 154,99 156,102 158,102 159,104 161,104 163,106 164,106 166,109 168,109 169,111 171,111 173,114 174,114 176,117 178,117 179,119 181,119 183,121 184,121 186,123 188,123 189,125 191,125 193,127 194,127 196,129 197,129 199,132 201,132 202,135 204,135 206,137 207,137 209,139 211,139 212,142 214,142 216,145 217,145 219,147 221,147 222,149 224,149 226,151 227,151 229,153 231,153 232,155 234,155 236,159 237,159 239,161 241,161 242,163 244,163 246,165 247,165 249,168 251,168 252,170 254,170 256,172 257,172 259,175 260,175 262,177 264,177 265,178 267,178 269,180 270,180 272,183 274,183 275,186 277,186 279,188 280,188 282,190 284,190 285,192 287,192 289,194 290,194 292,197 294,197 295,199 297,199 299,202 300,202 302,205 304,205 305,207 307,207 309,209 310,209 312,211 314,211 315,213 317,213 318,215 320,215 322,216 323,216 325,218 327,218 328,221 330,221 332,223 333,223 335,226 337,226 338,229 340,229 342,231 343,231 345,233 347,233 348,235 350,235 352,236 353,236 355,239 357,239 358,241 360,241 362,245 363,245 365,247 367,247 368,250 370,250 372,253 373,253 375,256 377,256 378,259 380,259 381,261 383,261 385,263 386,263 388,265 390,265 391,267 393,267 395,270 396,270 398,272 400,272 401,274 403,274 405,276 406,276 408,279 410,279 411,280 413,280 415,283 416,283 418,285 419,285 421,288 423,288 424,289 426,289 428,291 429,291 431,293 433,293 434,294 436,294 438,297 439,297 441,300 443,300 444,302 446,302 447,304 449,304 451,306 452,306 454,308 455,308 457,310 459,310 460,313 462,313 463,316 465,316 466,318 468,318 469,321 471,321 472,324 474,324 475,326 477,326 478,327 480,328 482,329 483,329 485,331 486,332 488,333 489,333 491,335 492,335 494,337 495,338 497,339 499,340 500,342 501,342 503,345 504,346 506,347 507,348 509,350 510,351 512,352 513,352 515,353 516,354 518,355 519,356 521,357 522,358 524,359 525,360 526,361 528,361 529,362 531,364 532,364 534,365 535,366 537,367 538,368 540,369 541,370 543,371 544,372 546,372 548,373 549,374 551,375 552,376 554,376 555,377 557,378 559,379 560,380 562,381 563,383 565,384 567,385 568,385 570,387 571,388 573,389 574,390 576,391 577,391 579,393 581,394 582,394 583,395 585,396 586,397 588,398 590,400 591,400 592,401 594,403 595,403 597,404 598,405 600,406 601,407 603,408 604,409 606,410 607,411 609,412 610,413 612,414 613,415 615,416 616,416 618,417 619,417 621,419 622,421 624,421 625,422 627,423 628,423 630,425 631,426 633,426 634,428 636,429 637,429 639,430 640,431 642,431 643,433 645,433 646,435 648,436 649,437 651,438 652,439 653,440 655,441 657,442 658,443 659,444 661,445 662,446 664,447 665,448 667,448 668,449 670,450 671,450 672,451 674,452 675,453 677,454 678,456 680,457 681,458 683,459 684,459 685,460 687,461 688,462 690,463 691,464 692,464 694,465 695,466 697,467 698,468 699,469 701,469 702,470 704,471 705,472 706,472 708,473 709,473 711,474 712,476 713,476 715,477 716,478 718,478 719,479 720,481 722,481 723,482 725,483 726,484 727,484 729,485 730,486 731,486 733,487 734,487 736,488 737,489 738,490 740,491 741,492 742,494 744,494 745,495 746,497 748,497 749,498 750,499 752,500 753,500 754,501 756,501 757,502 758,502 760,503 761,504 762,504 764,505 765,506 766,506 768,507 769,507 770,508 772,509 773,509 774,510 776,511 777,512 778,513 780,514 781,514 782,514 784,515 785,516 786,517 788,518 789,518 790,519 792,519 793,520 794,521 795,522 797,522 798,522 799,523 801,524 802,524 803,526 805,526 806,527 807,528 809,529 810,530 811,531 813,532 814,532 815,533 816,534 818,535 819,536 820,537 822,538 823,539 824,540 825,540 827,541 828,541 829,542 831,543 832,544 833,544 835,545 836,546 837,546 838,547 840,547 841,548 842,548 844,549 845,549 846,550 848,551 849,551 850,552 851,552 853,553 854,554 855,554 856,554 858,555 859,555 860,556 862,556 863,557 864,557 865,558 867,558 868,559 869,560 870,560 872,561 873,563 874,563 875,564 877,565 878,565 879,566 880,566 882,567 883,568 884,568 885,569 887,569 888,571 889,572 890,573 892,573 893,574 894,574 895,575 897,576 898,576 899,577 900,578 902,579 903,580 904,581 905,581 906,582 908,583 909,583 910,584 911,584 913,585 914,586 915,587 916,587 918,588 919,588 920,589 921,589 923,590 924,591 925,592 927,593 928,593 929,594 930,595 932,596 933,596 934,597 935,598 937,598 938,599 939,600 941,600 942,600 943,601 944,602 946,603 947,603 948,604 950,605 951,606 952,606 953,607 955,608 956,609 957,609 958,609 960,610 961,610 962,611 963,611 965,612 966,613 967,613 968,614 970,614 971,615 972,615 973,616 975,616 976,617 977,618 978,618 980,619 981,620 982,620 984,621 985,622 "/>
<rect x="1059" y="32" width="109" height="69" opacity="0.1" fill="#0000FF" stroke="none"/>
<rect x="1059" y="32" width="109" height="69" opacity="1" fill="none" stroke="#0000FF"/>
<text x="1077" y="47" dy="0.76em" text-anchor="start" font-family="Calibri" font-size="9.67741935483871" opacity="1" fill="#000000">
Classic ABC
</text>
<text x="1077" y="62" dy="0.76em" text-anchor="start" font-family="Calibri" font-size="9.67741935483871" opacity="1" fill="#000000">
Reinforcement ABC
</text>
<text x="1077" y="77" dy="0.76em" text-anchor="start" font-family="Calibri" font-size="9.67741935483871" opacity="1" fill="#000000">
VS-RABC
</text>
<rect x="1059" y="51" width="15" height="1" opacity="1" fill="none" stroke="#000000"/>
<rect x="1059" y="66" width="15" height="1" opacity="1" fill="none" stroke="#FF0000"/>
<rect x="1059" y="81" width="15" height="1" opacity="1" fill="none" stroke="#00FF00"/>
</svg>
