<svg width="1200" height="800" viewBox="0 0 1200 800" xmlns="http://www.w3.org/2000/svg">
<rect x="0" y="0" width="1200" height="800" opacity="1" fill="#FFFFFF" stroke="none"/>
<line opacity="0.1" stroke="#000000" stroke-width="1" x1="91" y1="722" x2="91" y2="27"/>
<line opacity="0.1" stroke="#000000" stroke-width="1" x1="108" y1="722" x2="108" y2="27"/>
<line opacity="0.1" stroke="#000000" stroke-width="1" x1="124" y1="722" x2="124" y2="27"/>
<line opacity="0.1" stroke="#000000" stroke-width="1" x1="141" y1="722" x2="141" y2="27"/>
<line opacity="0.1" stroke="#000000" stroke-width="1" x1="158" y1="722" x2="158" y2="27"/>
<line opacity="0.1" stroke="#000000" stroke-width="1" x1="174" y1="722" x2="174" y2="27"/>
<line opacity="0.1" stroke="#000000" stroke-width="1" x1="191" y1="722" x2="191" y2="27"/>
<line opacity="0.1" stroke="#000000" stroke-width="1" x1="207" y1="722" x2="207" y2="27"/>
<line opacity="0.1" stroke="#000000" stroke-width="1" x1="224" y1="722" x2="224" y2="27"/>
<line opacity="0.1" stroke="#000000" stroke-width="1" x1="240" y1="722" x2="240" y2="27"/>
<line opacity="0.1" stroke="#000000" stroke-width="1" x1="257" y1="722" x2="257" y2="27"/>
<line opacity="0.1" stroke="#000000" stroke-width="1" x1="273" y1="722" x2="273" y2="27"/>
<line opacity="0.1" stroke="#000000" stroke-width="1" x1="290" y1="722" x2="290" y2="27"/>
<line opacity="0.1" stroke="#000000" stroke-width="1" x1="306" y1="722" x2="306" y2="27"/>
<line opacity="0.1" stroke="#000000" stroke-width="1" x1="323" y1="722" x2="323" y2="27"/>
<line opacity="0.1" stroke="#000000" stroke-width="1" x1="339" y1="722" x2="339" y2="27"/>
<line opacity="0.1" stroke="#000000" stroke-width="1" x1="356" y1="722" x2="356" y2="27"/>
<line opacity="0.1" stroke="#000000" stroke-width="1" x1="372" y1="722" x2="372" y2="27"/>
<line opacity="0.1" stroke="#000000" stroke-width="1" x1="389" y1="722" x2="389" y2="27"/>
<line opacity="0.1" stroke="#000000" stroke-width="1" x1="406" y1="722" x2="406" y2="27"/>
<line opacity="0.1" stroke="#000000" stroke-width="1" x1="422" y1="722" x2="422" y2="27"/>
<line opacity="0.1" stroke="#000000" stroke-width="1" x1="439" y1="722" x2="439" y2="27"/>
<line opacity="0.1" stroke="#000000" stroke-width="1" x1="455" y1="722" x2="455" y2="27"/>
<line opacity="0.1" stroke="#000000" stroke-width="1" x1="472" y1="722" x2="472" y2="27"/>
<line opacity="0.1" stroke="#000000" stroke-width="1" x1="488" y1="722" x2="488" y2="27"/>
<line opacity="0.1" stroke="#000000" stroke-width="1" x1="505" y1="722" x2="505" y2="27"/>
<line opacity="0.1" stroke="#000000" stroke-width="1" x1="521" y1="722" x2="521" y2="27"/>
<line opacity="0.1" stroke="#000000" stroke-width="1" x1="538" y1="722" x2="538" y2="27"/>
<line opacity="0.1" stroke="#000000" stroke-width="1" x1="554" y1="722" x2="554" y2="27"/>
<line opacity="0.1" stroke="#000000" stroke-width="1" x1="571" y1="722" x2="571" y2="27"/>
<line opacity="0.1" stroke="#000000" stroke-width="1" x1="587" y1="722" x2="587" y2="27"/>
<line opacity="0.1" stroke="#000000" stroke-width="1" x1="604" y1="722" x2="604" y2="27"/>
<line opacity="0.1" stroke="#000000" stroke-width="1" x1="620" y1="722" x2="620" y2="27"/>
<line opacity="0.1" stroke="#000000" stroke-width="1" x1="637" y1="722" x2="637" y2="27"/>
<line opacity="0.1" stroke="#000000" stroke-width="1" x1="654" y1="722" x2="654" y2="27"/>
<line opacity="0.1" stroke="#000000" stroke-width="1" x1="670" y1="722" x2="670" y2="27"/>
<line opacity="0.1" stroke="#000000" stroke-width="1" x1="687" y1="722" x2="687" y2="27"/>
<line opacity="0.1" stroke="#000000" stroke-width="1" x1="703" y1="722" x2="703" y2="27"/>
<line opacity="0.1" stroke="#000000" stroke-width="1" x1="720" y1="722" x2="720" y2="27"/>
<line opacity="0.1" stroke="#000000" stroke-width="1" x1="736" y1="722" x2="736" y2="27"/>
<line opacity="0.1" stroke="#000000" stroke-width="1" x1="753" y1="722" x2="753" y2="27"/>
<line opacity="0.1" stroke="#000000" stroke-width="1" x1="769" y1="722" x2="769" y2="27"/>
<line opacity="0.1" stroke="#000000" stroke-width="1" x1="786" y1="722" x2="786" y2="27"/>
<line opacity="0.1" stroke="#000000" stroke-width="1" x1="802" y1="722" x2="802" y2="27"/>
<line opacity="0.1" stroke="#000000" stroke-width="1" x1="819" y1="722" x2="819" y2="27"/>
<line opacity="0.1" stroke="#000000" stroke-width="1" x1="835" y1="722" x2="835" y2="27"/>
<line opacity="0.1" stroke="#000000" stroke-width="1" x1="852" y1="722" x2="852" y2="27"/>
<line opacity="0.1" stroke="#000000" stroke-width="1" x1="868" y1="722" x2="868" y2="27"/>
<line opacity="0.1" stroke="#000000" stroke-width="1" x1="885" y1="722" x2="885" y2="27"/>
<line opacity="0.1" stroke="#000000" stroke-width="1" x1="902" y1="722" x2="902" y2="27"/>
<line opacity="0.1" stroke="#000000" stroke-width="1" x1="918" y1="722" x2="918" y2="27"/>
<line opacity="0.1" stroke="#000000" stroke-width="1" x1="935" y1="722" x2="935" y2="27"/>
<line opacity="0.1" stroke="#000000" stroke-width="1" x1="951" y1="722" x2="951" y2="27"/>
<line opacity="0.1" stroke="#000000" stroke-width="1" x1="968" y1="722" x2="968" y2="27"/>
<line opacity="0.1" stroke="#000000" stroke-width="1" x1="984" y1="722" x2="984" y2="27"/>
<line opacity="0.1" stroke="#000000" stroke-width="1" x1="1001" y1="722" x2="1001" y2="27"/>
<line opacity="0.1" stroke="#000000" stroke-width="1" x1="1017" y1="722" x2="1017" y2="27"/>
<line opacity="0.1" stroke="#000000" stroke-width="1" x1="1034" y1="722" x2="1034" y2="27"/>
<line opacity="0.1" stroke="#000000" stroke-width="1" x1="1050" y1="722" x2="1050" y2="27"/>
<line opacity="0.1" stroke="#000000" stroke-width="1" x1="1067" y1="722" x2="1067" y2="27"/>
<line opacity="0.1" stroke="#000000" stroke-width="1" x1="1083" y1="722" x2="1083" y2="27"/>
<line opacity="0.1" stroke="#000000" stroke-width="1" x1="1100" y1="722" x2="1100" y2="27"/>
<line opacity="0.1" stroke="#000000" stroke-width="1" x1="1116" y1="722" x2="1116" y2="27"/>
<line opacity="0.1" stroke="#000000" stroke-width="1" x1="1133" y1="722" x2="1133" y2="27"/>
<line opacity="0.1" stroke="#000000" stroke-width="1" x1="1150" y1="722" x2="1150" y2="27"/>
<line opacity="0.1" stroke="#000000" stroke-width="1" x1="1166" y1="722" x2="1166" y2="27"/>
<line opacity="0.1" stroke="#000000" stroke-width="1" x1="77" y1="717" x2="1172" y2="717"/>
<line opacity="0.1" stroke="#000000" stroke-width="1" x1="77" y1="705" x2="1172" y2="705"/>
<line opacity="0.1" stroke="#000000" stroke-width="1" x1="77" y1="693" x2="1172" y2="693"/>
<line opacity="0.1" stroke="#000000" stroke-width="1" x1="77" y1="680" x2="1172" y2="680"/>
<line opacity="0.1" stroke="#000000" stroke-width="1" x1="77" y1="668" x2="1172" y2="668"/>
<line opacity="0.1" stroke="#000000" stroke-width="1" x1="77" y1="656" x2="1172" y2="656"/>
<line opacity="0.1" stroke="#000000" stroke-width="1" x1="77" y1="644" x2="1172" y2="644"/>
<line opacity="0.1" stroke="#000000" stroke-width="1" x1="77" y1="632" x2="1172" y2="632"/>
<line opacity="0.1" stroke="#000000" stroke-width="1" x1="77" y1="619" x2="1172" y2="619"/>
<line opacity="0.1" stroke="#000000" stroke-width="1" x1="77" y1="607" x2="1172" y2="607"/>
<line opacity="0.1" stroke="#000000" stroke-width="1" x1="77" y1="595" x2="1172" y2="595"/>
<line opacity="0.1" stroke="#000000" stroke-width="1" x1="77" y1="583" x2="1172" y2="583"/>
<line opacity="0.1" stroke="#000000" stroke-width="1" x1="77" y1="571" x2="1172" y2="571"/>
<line opacity="0.1" stroke="#000000" stroke-width="1" x1="77" y1="558" x2="1172" y2="558"/>
<line opacity="0.1" stroke="#000000" stroke-width="1" x1="77" y1="546" x2="1172" y2="546"/>
<line opacity="0.1" stroke="#000000" stroke-width="1" x1="77" y1="534" x2="1172" y2="534"/>
<line opacity="0.1" stroke="#000000" stroke-width="1" x1="77" y1="522" x2="1172" y2="522"/>
<line opacity="0.1" stroke="#000000" stroke-width="1" x1="77" y1="510" x2="1172" y2="510"/>
<line opacity="0.1" stroke="#000000" stroke-width="1" x1="77" y1="497" x2="1172" y2="497"/>
<line opacity="0.1" stroke="#000000" stroke-width="1" x1="77" y1="485" x2="1172" y2="485"/>
<line opacity="0.1" stroke="#000000" stroke-width="1" x1="77" y1="473" x2="1172" y2="473"/>
<line opacity="0.1" stroke="#000000" stroke-width="1" x1="77" y1="461" x2="1172" y2="461"/>
<line opacity="0.1" stroke="#000000" stroke-width="1" x1="77" y1="449" x2="1172" y2="449"/>
<line opacity="0.1" stroke="#000000" stroke-width="1" x1="77" y1="436" x2="1172" y2="436"/>
<line opacity="0.1" stroke="#000000" stroke-width="1" x1="77" y1="424" x2="1172" y2="424"/>
<line opacity="0.1" stroke="#000000" stroke-width="1" x1="77" y1="412" x2="1172" y2="412"/>
<line opacity="0.1" stroke="#000000" stroke-width="1" x1="77" y1="400" x2="1172" y2="400"/>
<line opacity="0.1" stroke="#000000" stroke-width="1" x1="77" y1="388" x2="1172" y2="388"/>
<line opacity="0.1" stroke="#000000" stroke-width="1" x1="77" y1="375" x2="1172" y2="375"/>
<line opacity="0.1" stroke="#000000" stroke-width="1" x1="77" y1="363" x2="1172" y2="363"/>
<line opacity="0.1" stroke="#000000" stroke-width="1" x1="77" y1="351" x2="1172" y2="351"/>
<line opacity="0.1" stroke="#000000" stroke-width="1" x1="77" y1="339" x2="1172" y2="339"/>
<line opacity="0.1" stroke="#000000" stroke-width="1" x1="77" y1="327" x2="1172" y2="327"/>
<line opacity="0.1" stroke="#000000" stroke-width="1" x1="77" y1="314" x2="1172" y2="314"/>
<line opacity="0.1" stroke="#000000" stroke-width="1" x1="77" y1="302" x2="1172" y2="302"/>
<line opacity="0.1" stroke="#000000" stroke-width="1" x1="77" y1="290" x2="1172" y2="290"/>
<line opacity="0.1" stroke="#000000" stroke-width="1" x1="77" y1="278" x2="1172" y2="278"/>
<line opacity="0.1" stroke="#000000" stroke-width="1" x1="77" y1="266" x2="1172" y2="266"/>
<line opacity="0.1" stroke="#000000" stroke-width="1" x1="77" y1="253" x2="1172" y2="253"/>
<line opacity="0.1" stroke="#000000" stroke-width="1" x1="77" y1="241" x2="1172" y2="241"/>
<line opacity="0.1" stroke="#000000" stroke-width="1" x1="77" y1="229" x2="1172" y2="229"/>
<line opacity="0.1" stroke="#000000" stroke-width="1" x1="77" y1="217" x2="1172" y2="217"/>
<line opacity="0.1" stroke="#000000" stroke-width="1" x1="77" y1="205" x2="1172" y2="205"/>
<line opacity="0.1" stroke="#000000" stroke-width="1" x1="77" y1="192" x2="1172" y2="192"/>
<line opacity="0.1" stroke="#000000" stroke-width="1" x1="77" y1="180" x2="1172" y2="180"/>
<line opacity="0.1" stroke="#000000" stroke-width="1" x1="77" y1="168" x2="1172" y2="168"/>
<line opacity="0.1" stroke="#000000" stroke-width="1" x1="77" y1="156" x2="1172" y2="156"/>
<line opacity="0.1" stroke="#000000" stroke-width="1" x1="77" y1="143" x2="1172" y2="143"/>
<line opacity="0.1" stroke="#000000" stroke-width="1" x1="77" y1="131" x2="1172" y2="131"/>
<line opacity="0.1" stroke="#000000" stroke-width="1" x1="77" y1="119" x2="1172" y2="119"/>
<line opacity="0.1" stroke="#000000" stroke-width="1" x1="77" y1="107" x2="1172" y2="107"/>
<line opacity="0.1" stroke="#000000" stroke-width="1" x1="77" y1="95" x2="1172" y2="95"/>
<line opacity="0.1" stroke="#000000" stroke-width="1" x1="77" y1="82" x2="1172" y2="82"/>
<line opacity="0.1" stroke="#000000" stroke-width="1" x1="77" y1="70" x2="1172" y2="70"/>
<line opacity="0.1" stroke="#000000" stroke-width="1" x1="77" y1="58" x2="1172" y2="58"/>
<line opacity="0.1" stroke="#000000" stroke-width="1" x1="77" y1="46" x2="1172" y2="46"/>
<line opacity="0.1" stroke="#000000" stroke-width="1" x1="77" y1="34" x2="1172" y2="34"/>
<line opacity="0.2" stroke="#000000" stroke-width="1" x1="240" y1="722" x2="240" y2="27"/>
<line opacity="0.2" stroke="#000000" stroke-width="1" x1="406" y1="722" x2="406" y2="27"/>
<line opacity="0.2" stroke="#000000" stroke-width="1" x1="571" y1="722" x2="571" y2="27"/>
<line opacity="0.2" stroke="#000000" stroke-width="1" x1="736" y1="722" x2="736" y2="27"/>
<line opacity="0.2" stroke="#000000" stroke-width="1" x1="902" y1="722" x2="902" y2="27"/>
<line opacity="0.2" stroke="#000000" stroke-width="1" x1="1067" y1="722" x2="1067" y2="27"/>
<line opacity="0.2" stroke="#000000" stroke-width="1" x1="77" y1="644" x2="1172" y2="644"/>
<line opacity="0.2" stroke="#000000" stroke-width="1" x1="77" y1="522" x2="1172" y2="522"/>
<line opacity="0.2" stroke="#000000" stroke-width="1" x1="77" y1="400" x2="1172" y2="400"/>
<line opacity="0.2" stroke="#000000" stroke-width="1" x1="77" y1="278" x2="1172" y2="278"/>
<line opacity="0.2" stroke="#000000" stroke-width="1" x1="77" y1="156" x2="1172" y2="156"/>
<line opacity="0.2" stroke="#000000" stroke-width="1" x1="77" y1="34" x2="1172" y2="34"/>
<polyline fill="none" opacity="1" stroke="#000000" stroke-width="1" points="76,27 76,722 "/>
<text x="67" y="644" dy="0.5ex" text-anchor="end" font-family="sans-serif" font-size="9.67741935483871" opacity="1" fill="#000000">
300000.0
</text>
<polyline fill="none" opacity="1" stroke="#000000" stroke-width="1" points="71,644 76,644 "/>
<text x="67" y="522" dy="0.5ex" text-anchor="end" font-family="sans-serif" font-size="9.67741935483871" opacity="1" fill="#000000">
320000.0
</text>
<polyline fill="none" opacity="1" stroke="#000000" stroke-width="1" points="71,522 76,522 "/>
<text x="67" y="400" dy="0.5ex" text-anchor="end" font-family="sans-serif" font-size="9.67741935483871" opacity="1" fill="#000000">
340000.0
</text>
<polyline fill="none" opacity="1" stroke="#000000" stroke-width="1" points="71,400 76,400 "/>
<text x="67" y="278" dy="0.5ex" text-anchor="end" font-family="sans-serif" font-size="9.67741935483871" opacity="1" fill="#000000">
360000.0
</text>
<polyline fill="none" opacity="1" stroke="#000000" stroke-width="1" points="71,278 76,278 "/>
<text x="67" y="156" dy="0.5ex" text-anchor="end" font-family="sans-serif" font-size="9.67741935483871" opacity="1" fill="#000000">
380000.0
</text>
<polyline fill="none" opacity="1" stroke="#000000" stroke-width="1" points="71,156 76,156 "/>
<text x="67" y="34" dy="0.5ex" text-anchor="end" font-family="sans-serif" font-size="9.67741935483871" opacity="1" fill="#000000">
400000.0
</text>
<polyline fill="none" opacity="1" stroke="#000000" stroke-width="1" points="71,34 76,34 "/>
<polyline fill="none" opacity="1" stroke="#000000" stroke-width="1" points="77,723 1172,723 "/>
<text x="240" y="733" dy="0.76em" text-anchor="middle" font-family="sans-serif" font-size="9.67741935483871" opacity="1" fill="#000000">
5000.0
</text>
<polyline fill="none" opacity="1" stroke="#000000" stroke-width="1" points="240,723 240,728 "/>
<text x="406" y="733" dy="0.76em" text-anchor="middle" font-family="sans-serif" font-size="9.67741935483871" opacity="1" fill="#000000">
10000.0
</text>
<polyline fill="none" opacity="1" stroke="#000000" stroke-width="1" points="406,723 406,728 "/>
<text x="571" y="733" dy="0.76em" text-anchor="middle" font-family="sans-serif" font-size="9.67741935483871" opacity="1" fill="#000000">
15000.0
</text>
<polyline fill="none" opacity="1" stroke="#000000" stroke-width="1" points="571,723 571,728 "/>
<text x="736" y="733" dy="0.76em" text-anchor="middle" font-family="sans-serif" font-size="9.67741935483871" opacity="1" fill="#000000">
20000.0
</text>
<polyline fill="none" opacity="1" stroke="#000000" stroke-width="1" points="736,723 736,728 "/>
<text x="902" y="733" dy="0.76em" text-anchor="middle" font-family="sans-serif" font-size="9.67741935483871" opacity="1" fill="#000000">
25000.0
</text>
<polyline fill="none" opacity="1" stroke="#000000" stroke-width="1" points="902,723 902,728 "/>
<text x="1067" y="733" dy="0.76em" text-anchor="middle" font-family="sans-serif" font-size="9.67741935483871" opacity="1" fill="#000000">
30000.0
</text>
<polyline fill="none" opacity="1" stroke="#000000" stroke-width="1" points="1067,723 1067,728 "/>
<polyline fill="none" opacity="1" stroke="#000000" stroke-width="1" points="77,250 78,251 80,252 80,252 81,252 83,253 83,253 85,253 86,254 87,254 88,254 90,256 90,256 92,256 93,257 93,257 95,257 97,258 97,258 98,258 100,259 100,259 102,259 103,260 103,260 105,260 107,261 107,261 108,261 110,262 110,262 112,262 113,263 113,263 115,263 117,264 117,264 118,264 120,265 120,265 122,265 123,267 123,267 125,267 127,267 127,267 128,267 130,269 130,269 132,269 133,270 133,270 135,270 137,271 137,271 138,271 140,272 140,272 142,272 143,273 143,273 145,273 147,275 147,275 148,275 150,276 150,276 152,276 153,277 153,277 155,277 157,277 157,277 158,277 160,279 160,279 162,279 163,280 163,280 165,280 167,281 167,281 168,281 170,282 170,282 172,282 173,282 173,282 175,282 177,283 177,283 178,283 180,284 180,284 182,284 183,285 183,285 185,285 187,286 187,286 188,286 190,287 190,287 192,287 193,289 193,289 195,289 197,290 197,290 198,290 200,291 200,291 202,291 203,291 203,291 205,291 207,292 207,292 208,292 210,293 210,293 212,293 213,294 213,294 215,294 217,295 217,295 218,295 220,295 220,295 222,295 223,296 223,296 225,296 227,298 227,298 228,298 230,299 230,299 232,299 233,300 233,300 235,300 237,301 237,301 238,301 240,302 240,302 242,302 243,302 243,302 245,302 247,303 247,303 248,303 250,304 250,304 252,304 253,305 254,305 255,305 257,306 257,306 259,306 260,307 260,307 262,307 263,308 264,308 265,308 267,309 267,309 269,309 270,310 270,310 272,310 274,311 274,311 275,311 277,312 277,312 279,312 280,313 280,313 282,313 284,314 284,314 285,314 287,315 287,315 289,315 290,316 290,316 292,316 294,317 294,317 295,317 297,318 297,318 299,318 300,319 300,319 302,319 304,320 304,320 305,320 307,320 307,320 309,320 310,321 310,321 312,321 314,322 314,322 315,322 317,323 317,323 319,323 320,324 320,324 322,324 324,326 324,326 325,326 327,327 327,327 329,327 330,328 330,328 332,328 334,329 334,329 335,329 337,330 337,330 339,330 340,331 340,331 342,331 344,332 344,332 345,332 347,333 347,333 349,333 350,334 350,334 352,334 354,335 354,335 355,335 357,336 357,336 359,336 360,337 360,337 362,337 364,339 364,339 365,339 367,340 367,340 369,340 370,340 370,340 372,340 374,341 374,341 375,341 377,342 377,342 379,342 380,343 380,343 382,343 384,344 384,344 385,344 387,345 387,345 389,345 390,347 390,347 392,347 394,347 394,347 395,347 397,349 397,349 399,349 400,350 400,350 402,350 404,351 404,351 405,351 407,352 407,352 409,352 410,353 410,353 412,353 414,354 414,354 415,354 417,355 417,355 419,355 420,356 421,357 422,357 424,358 424,358 425,358 427,359 427,359 429,359 430,360 430,360 432,360 434,360 434,360 435,360 437,362 437,362 439,362 440,362 440,362 442,362 444,363 444,363 445,363 447,364 447,364 449,364 450,364 450,364 452,364 453,365 454,365 455,365 457,366 457,366 459,366 460,367 460,367 462,367 463,368 463,368 465,368 467,369 467,369 468,369 470,370 470,370 472,370 473,371 473,371 475,371 477,372 477,372 478,372 480,373 480,373 482,373 483,374 483,374 485,374 487,375 487,375 488,375 490,376 490,376 492,376 493,377 493,377 495,377 496,378 497,378 498,378 500,379 500,379 501,379 503,379 503,379 505,380 506,380 507,380 508,380 510,381 510,381 511,381 513,382 513,382 515,382 516,383 516,383 518,383 519,384 520,385 521,385 523,385 523,385 525,385 526,386 527,386 528,387 529,387 530,387 531,387 533,388 533,388 534,388 536,389 536,389 538,389 539,390 540,390 541,390 542,391 543,391 544,391 546,392 546,393 548,393 549,393 550,393 551,394 552,394 553,394 554,394 556,395 556,395 557,395 559,396 559,396 561,396 562,397 563,397 564,397 565,398 566,398 567,398 568,399 569,399 570,399 572,400 572,400 573,400 575,401 575,401 577,401 578,401 579,402 580,402 581,402 582,403 583,403 584,403 585,404 586,404 588,405 588,405 590,405 591,406 592,406 593,406 594,407 595,407 596,408 597,408 598,408 599,409 601,409 601,410 602,410 604,411 604,411 606,411 607,411 608,412 609,412 610,412 611,413 612,413 613,413 614,413 615,414 617,414 617,414 619,415 620,415 621,415 622,415 623,416 624,416 625,416 627,417 627,417 629,417 630,418 631,418 632,418 633,419 634,419 635,419 636,420 637,420 639,420 640,421 641,421 642,422 643,422 644,422 645,422 646,423 647,423 649,423 650,423 651,424 652,424 653,424 654,425 655,425 656,425 657,425 658,426 660,426 661,426 662,427 663,427 664,427 665,427 666,428 667,428 668,428 670,428 670,429 672,429 673,430 674,430 675,430 676,430 677,431 678,431 679,431 680,432 682,432 683,432 684,432 685,432 686,433 687,433 688,433 689,434 690,434 692,434 693,434 694,435 695,435 696,435 697,436 698,436 699,436 700,436 702,436 703,437 704,437 705,437 706,437 707,438 708,438 709,438 710,438 711,439 713,439 714,439 715,439 716,440 717,440 718,441 719,441 720,441 721,441 722,442 723,442 725,442 726,443 727,443 728,443 729,444 730,444 731,444 732,444 733,445 734,445 735,445 736,446 738,446 739,446 740,447 741,447 742,447 743,447 744,447 745,448 746,448 747,448 748,449 749,449 750,449 752,449 753,450 754,450 755,450 756,451 757,451 758,451 759,451 760,451 762,452 763,452 764,452 765,452 766,452 767,453 768,453 769,453 770,454 772,454 773,455 774,455 775,455 776,456 777,456 778,456 779,457 780,457 782,457 783,458 784,458 785,458 786,458 787,459 788,459 789,459 790,459 791,460 792,460 793,460 795,460 796,461 797,461 798,461 799,461 800,461 801,462 802,462 803,462 804,462 805,463 806,463 808,463 809,463 810,464 811,464 812,464 813,464 814,465 815,465 816,465 818,466 819,466 820,466 821,467 822,467 823,467 824,467 825,468 826,468 828,468 829,468 830,468 831,469 832,469 833,469 834,470 835,470 836,470 838,471 839,471 840,471 841,471 842,472 843,472 844,472 845,472 846,472 848,473 849,473 850,473 851,473 852,474 853,474 854,474 855,474 856,474 857,475 858,475 860,475 861,476 862,476 863,476 864,477 865,477 866,477 867,477 868,477 870,478 871,478 872,478 873,479 874,479 875,479 876,479 877,480 878,480 879,480 880,480 881,480 883,480 884,481 885,481 886,481 887,482 888,482 889,482 890,482 891,482 892,483 893,483 894,483 896,483 897,483 898,484 899,484 900,484 901,485 902,485 903,485 904,486 905,486 907,486 908,486 909,486 910,487 911,487 912,488 913,488 914,488 915,488 916,489 917,489 918,489 920,490 921,490 922,490 923,490 924,491 925,491 926,491 927,491 928,492 929,492 930,492 932,493 933,493 934,494 935,494 936,495 937,495 938,495 939,496 940,496 942,496 943,496 943,497 945,497 946,497 947,497 948,498 949,498 950,498 951,498 952,498 953,499 955,499 956,499 957,500 958,500 959,500 960,501 961,501 962,501 963,501 964,501 966,502 966,502 968,502 969,502 970,503 971,503 972,503 973,504 974,504 975,505 976,505 978,505 979,505 980,505 981,506 982,506 983,506 984,507 985,507 986,507 988,507 989,507 990,508 991,508 992,508 993,508 994,509 995,509 996,509 997,510 999,510 1000,510 1001,510 1002,511 1003,511 1004,511 1005,511 1006,512 1007,512 1008,512 1010,513 1011,513 1012,513 1013,513 1014,513 1015,514 1016,514 1017,514 1018,515 1019,515 1021,515 1022,516 1023,516 1024,516 1025,517 1026,517 1027,517 1028,518 1029,518 1031,518 1032,519 1033,519 1034,519 1035,519 1036,520 1037,520 1038,520 1039,520 1040,521 1042,521 1043,521 1044,522 1045,522 1046,522 1047,522 1048,523 1049,523 1050,523 1051,523 1052,523 1053,524 1055,524 1056,524 1057,524 1058,525 1059,525 1060,525 1061,526 1062,526 1063,526 1064,526 1065,526 1066,527 1067,527 1069,527 1070,527 1071,528 1072,528 "/>
<polyline fill="none" opacity="1" stroke="#FF0000" stroke-width="1" points="77,256 78,256 80,257 80,257 81,257 83,258 83,258 85,258 86,260 87,260 88,260 90,261 90,261 92,261 93,262 93,262 95,262 97,263 97,263 98,263 100,265 100,265 102,265 103,266 103,266 105,266 107,267 107,267 108,267 110,267 110,267 112,267 113,269 113,269 115,269 117,270 117,270 118,270 120,271 120,271 122,271 123,272 123,272 125,272 127,273 127,273 128,273 130,273 130,273 132,273 133,274 133,274 135,274 137,275 137,275 138,275 140,276 140,276 142,276 143,277 143,277 145,277 147,278 147,278 148,278 150,278 150,278 152,278 153,280 153,280 155,280 157,281 157,281 158,281 160,282 160,282 162,282 163,283 163,283 165,283 167,284 167,284 168,284 170,286 170,286 172,286 173,287 173,287 175,287 177,288 177,288 178,288 180,290 180,290 182,290 183,291 183,291 185,291 187,292 187,292 188,292 190,293 190,293 192,293 193,294 193,294 195,294 197,295 197,295 198,295 200,296 200,296 202,296 203,297 203,297 205,297 207,299 207,299 208,299 210,300 210,300 212,300 213,301 213,301 215,301 217,302 217,302 218,302 220,304 220,304 222,304 223,305 223,305 225,305 227,306 227,306 228,306 230,307 230,307 232,307 233,308 233,308 235,308 237,309 237,309 238,309 240,310 240,310 242,310 243,311 243,311 245,311 247,312 247,312 248,312 250,313 250,313 252,313 253,314 254,314 255,314 257,315 257,315 259,315 260,316 260,316 262,316 263,317 264,317 265,317 267,318 267,318 269,318 270,319 270,319 272,319 274,320 274,320 275,320 277,321 277,321 279,321 280,323 280,323 282,323 284,324 284,324 285,324 287,325 287,325 289,325 290,326 290,326 292,326 294,327 294,327 295,327 297,328 297,328 299,328 300,329 300,329 302,329 304,330 304,330 305,330 307,331 307,331 309,331 310,332 310,332 312,332 314,332 314,332 315,332 317,333 317,333 319,333 320,335 320,335 322,335 324,336 324,336 325,336 327,337 327,337 329,337 330,338 330,338 332,338 334,339 334,339 335,339 337,340 337,340 339,340 340,341 340,341 342,341 344,342 344,342 345,342 347,343 347,343 349,343 350,343 350,343 352,343 354,344 354,344 355,344 357,345 357,345 359,345 360,346 360,346 362,346 364,347 364,347 365,347 367,348 367,348 369,348 370,350 370,350 372,350 374,351 374,351 375,351 377,352 377,352 379,352 380,353 380,353 382,353 384,354 384,354 385,354 387,354 387,354 389,354 390,356 390,356 392,356 394,357 394,357 395,357 397,358 397,358 399,358 400,359 400,359 402,359 404,360 404,360 405,360 407,361 407,361 409,361 410,363 410,363 412,363 414,364 414,364 415,364 417,364 417,364 419,364 420,365 421,365 422,365 424,367 424,367 425,367 427,367 427,367 429,367 430,368 430,368 432,368 434,369 434,369 435,369 437,370 437,370 439,370 440,370 440,371 442,371 444,371 444,372 445,372 447,373 447,373 449,373 450,374 450,374 452,374 454,374 454,374 455,374 457,375 457,375 459,375 460,376 460,376 462,376 464,377 464,377 465,377 467,378 467,379 469,379 470,379 470,379 472,379 474,381 474,381 475,381 477,381 477,381 478,381 480,382 480,382 482,382 483,383 484,383 485,383 487,383 487,383 488,383 490,384 490,384 492,384 493,385 493,385 495,385 497,386 497,386 498,386 500,386 500,386 502,387 503,387 504,387 505,387 507,388 507,388 508,388 510,389 510,389 512,389 513,390 514,390 515,390 516,391 517,391 518,391 520,392 520,392 522,392 523,392 523,392 525,392 526,393 527,393 528,393 530,394 530,394 531,394 533,395 533,395 535,395 536,396 537,396 538,396 540,397 540,397 541,397 543,397 543,398 545,398 546,398 547,398 548,398 550,399 550,399 551,399 553,400 553,400 555,400 556,401 557,401 558,401 559,401 560,402 561,402 563,402 563,402 564,403 566,403 566,403 568,403 569,404 570,404 571,404 573,405 573,405 574,405 576,406 576,406 578,406 579,407 580,407 581,408 582,408 583,408 584,408 586,409 586,409 587,409 589,409 590,410 591,410 592,410 593,411 594,411 596,411 596,412 597,412 599,412 600,413 601,413 602,413 603,414 604,414 605,414 606,415 607,415 608,415 609,416 610,416 612,416 612,417 613,417 615,417 616,417 617,417 618,418 619,418 620,418 621,418 622,419 623,419 624,419 625,420 626,420 628,420 629,421 629,421 631,421 632,421 633,422 634,422 635,422 636,422 637,423 638,423 639,423 641,424 642,424 643,424 644,425 645,425 646,425 647,426 648,426 649,426 651,427 652,427 652,427 654,428 655,428 656,429 657,429 658,429 659,430 660,430 661,430 662,430 664,431 665,431 666,431 667,432 668,432 669,432 670,433 671,433 672,433 674,433 675,433 676,434 677,434 678,435 679,435 680,435 681,435 682,435 684,435 685,436 686,436 687,436 688,437 689,437 690,437 691,438 692,438 694,438 695,439 696,439 697,439 698,440 699,440 700,440 701,440 702,440 704,441 705,441 705,441 707,441 708,442 709,442 710,442 711,442 712,442 714,443 715,443 716,443 717,443 718,444 719,444 720,444 721,445 722,445 724,445 725,445 725,445 727,446 728,446 729,446 730,447 731,447 732,447 734,448 735,448 735,448 737,449 738,449 739,449 740,450 741,450 742,450 743,451 745,451 745,452 747,452 748,453 749,453 750,453 751,453 752,454 753,454 754,454 755,455 756,455 758,455 758,455 760,455 761,456 762,456 763,456 764,456 765,457 766,457 767,458 768,458 769,458 770,459 771,459 773,459 774,460 775,460 776,460 777,461 778,461 779,461 780,461 781,462 782,462 784,462 784,462 786,463 787,463 788,463 789,463 790,464 791,464 792,464 793,465 794,465 795,465 797,465 797,466 799,466 800,466 801,467 802,467 803,467 804,468 805,468 807,468 807,468 809,468 810,469 811,469 812,469 813,470 814,470 815,470 816,470 817,470 818,470 820,471 820,471 822,471 823,471 824,471 825,472 826,472 827,472 828,472 829,473 830,473 832,474 833,474 834,474 835,475 836,475 837,475 838,475 839,476 840,476 841,476 843,476 843,477 845,477 846,477 847,477 848,477 849,478 850,478 851,479 852,479 853,479 854,480 855,480 856,480 858,481 859,481 860,481 861,481 862,481 863,482 864,482 865,482 866,482 867,483 868,483 869,483 870,484 871,484 873,484 874,485 875,485 876,485 877,485 878,485 879,486 880,486 881,486 882,487 883,487 884,487 885,488 887,488 888,488 889,488 890,489 891,489 892,489 893,490 894,490 895,490 896,490 897,491 899,491 900,491 901,492 902,492 903,493 904,493 905,493 906,493 907,493 908,494 909,494 911,494 912,494 913,495 914,495 915,496 916,496 917,496 918,496 919,497 921,497 922,497 923,498 924,498 925,498 926,498 927,499 928,499 929,499 930,499 932,500 933,500 934,500 935,501 936,501 937,501 938,501 939,502 940,502 941,502 942,502 944,502 945,503 946,503 947,503 948,503 949,504 950,504 951,504 952,504 953,505 955,505 956,505 957,506 958,506 959,506 960,507 961,507 962,507 963,508 964,508 965,508 967,509 968,509 969,509 970,509 971,510 972,510 973,510 974,510 975,511 976,511 978,511 979,511 980,511 981,512 982,512 983,513 984,513 985,513 986,514 987,514 989,514 990,514 991,515 992,515 993,515 994,515 995,516 996,516 997,516 999,517 1000,517 1001,517 1002,517 1003,518 1004,518 1005,518 1006,519 1007,519 1008,519 1009,520 1011,520 1012,520 1013,521 1014,521 1015,521 1016,521 1017,521 1018,521 1019,522 1020,522 1021,522 1022,523 1024,523 1025,523 1026,523 1027,524 1028,524 1029,524 1030,525 1031,525 1032,525 1033,525 1034,525 1036,526 1037,526 1038,526 1039,526 1040,526 1041,527 1042,527 1043,527 1044,527 1045,528 1047,528 1048,528 1049,529 1050,529 1051,529 1052,529 1053,530 1054,530 1055,530 1056,530 1057,530 1059,531 1060,531 1061,531 1062,531 1063,532 1064,532 1065,532 1066,532 1067,532 1069,532 1070,533 "/>
<polyline fill="none" opacity="1" stroke="#00FF00" stroke-width="1" points="77,254 78,254 80,256 81,256 83,258 85,258 86,259 88,259 90,259 91,259 93,260 95,260 96,261 98,261 100,263 101,263 103,263 105,263 106,264 108,264 110,265 111,265 113,266 115,266 116,267 118,267 119,268 121,268 123,269 124,269 126,270 128,270 129,271 131,271 133,271 134,271 136,272 138,272 139,273 141,273 143,275 144,275 146,276 148,276 149,277 151,277 153,278 154,278 156,279 158,279 159,280 161,280 162,281 164,281 166,282 167,282 169,283 171,283 172,284 174,284 176,285 177,285 179,286 181,286 182,287 184,287 186,288 187,288 189,289 191,289 192,290 194,290 196,290 197,290 199,291 201,291 202,292 204,292 205,293 207,293 209,294 210,294 212,295 214,295 215,296 217,296 219,297 220,297 222,298 224,298 225,299 227,299 229,300 230,300 232,301 234,301 235,301 237,301 239,302 240,302 242,304 243,304 245,305 247,305 248,306 250,306 252,307 253,307 255,308 257,308 258,309 260,309 262,310 263,310 265,311 267,311 268,312 270,312 272,313 273,313 275,314 277,314 278,315 280,315 282,315 283,315 285,316 286,316 288,318 290,318 291,319 293,319 295,320 296,320 298,321 300,321 301,322 303,322 305,323 306,323 308,324 310,324 311,325 313,325 315,326 316,326 318,327 320,327 321,329 323,329 325,330 326,330 328,331 329,331 331,332 333,332 334,333 336,333 338,334 339,334 341,335 343,335 344,336 346,336 348,337 349,337 351,338 353,338 354,339 356,339 358,340 359,340 361,341 363,341 364,342 366,342 367,343 369,343 371,344 372,344 374,345 376,345 377,346 379,346 381,347 382,347 384,348 386,348 387,349 389,349 391,350 392,350 394,351 396,351 397,352 399,352 401,353 402,353 404,354 406,354 407,355 409,355 410,356 412,356 414,357 415,357 417,358 419,358 420,359 422,359 424,360 425,360 427,361 429,361 430,362 432,362 434,364 435,364 437,364 439,364 440,365 442,365 443,366 445,366 447,367 448,367 450,368 452,368 453,369 455,369 457,370 458,370 460,372 462,372 463,373 465,373 466,374 468,374 470,375 471,375 473,376 475,376 476,377 478,377 479,378 481,378 483,379 484,379 486,380 487,380 489,381 491,381 492,382 494,382 495,383 497,383 498,384 500,384 502,385 503,385 505,386 506,386 508,387 509,388 511,388 512,388 514,389 516,389 517,390 519,390 520,392 522,392 523,392 525,392 526,393 528,393 529,394 531,394 533,395 534,395 536,396 537,396 539,397 540,397 542,398 543,398 545,399 546,399 548,399 549,400 551,400 552,400 554,401 555,401 557,401 558,402 560,402 562,402 563,403 565,403 566,404 567,404 569,404 571,405 572,406 574,406 575,406 577,407 578,407 580,407 581,408 583,408 584,409 585,409 587,410 589,410 590,411 592,411 593,412 595,412 596,413 598,413 599,414 601,414 602,414 604,415 605,415 607,416 608,416 610,417 611,417 613,417 614,418 616,418 617,419 619,419 620,420 622,420 623,421 625,421 626,422 628,422 630,423 631,423 633,424 634,424 636,425 637,425 639,426 640,426 642,426 643,427 645,427 647,427 648,428 650,428 651,429 653,429 654,430 656,430 657,431 659,431 660,432 662,432 663,432 665,433 666,434 668,434 669,435 671,435 672,436 674,436 675,437 677,437 678,438 680,438 681,438 683,439 684,439 686,440 687,440 689,441 690,441 692,441 694,442 695,443 697,443 698,444 700,444 701,444 703,445 704,445 706,446 708,446 709,446 711,447 712,448 714,448 715,448 717,449 718,449 720,449 721,450 723,450 724,450 726,451 728,451 729,452 731,452 732,453 734,453 736,454 737,454 739,454 740,455 742,455 744,456 745,456 747,457 748,457 750,458 751,458 753,459 754,459 756,459 757,460 759,460 760,461 762,461 763,462 765,462 766,462 768,463 769,463 771,464 772,464 774,465 775,465 777,465 778,465 780,466 781,466 783,466 784,467 786,468 787,468 789,468 790,469 792,469 793,469 794,470 796,470 797,470 799,471 800,471 802,472 803,472 805,472 806,473 807,473 809,474 810,474 812,474 813,474 814,475 816,475 817,476 819,476 820,476 822,477 823,477 824,478 826,478 827,479 829,479 830,479 831,480 833,480 834,480 836,481 837,481 838,482 840,482 841,483 843,483 844,484 846,484 847,484 848,485 850,485 851,485 852,486 854,486 855,487 857,487 858,487 859,487 861,488 862,488 864,489 865,489 867,489 868,490 869,490 871,490 872,491 874,491 875,491 876,492 878,492 879,493 881,493 882,493 883,494 885,494 886,495 888,495 889,495 890,495 892,495 893,496 895,497 896,497 898,497 899,498 900,498 902,498 903,499 904,499 906,499 907,499 909,500 910,500 912,500 913,500 914,501 916,501 917,501 919,502 920,502 921,502 923,503 924,503 926,504 927,504 928,504 930,504 931,505 933,505 934,506 936,506 937,506 938,507 940,507 941,507 942,507 944,508 945,508 946,509 948,509 949,509 951,510 952,510 953,511 955,511 956,511 957,511 959,512 960,512 961,513 963,513 964,513 966,513 967,514 968,514 970,514 971,515 973,515 974,516 975,516 977,516 978,517 979,517 981,518 982,518 983,518 985,519 986,519 987,520 989,520 990,520 992,521 993,521 994,521 996,522 997,522 998,523 1000,523 1001,523 1003,524 1004,524 1005,524 1007,525 1008,525 1009,526 1011,526 1012,526 1014,527 1015,527 1016,527 "/>
<rect x="1059" y="32" width="109" height="69" opacity="0.1" fill="#0000FF" stroke="none"/>
<rect x="1059" y="32" width="109" height="69" opacity="1" fill="none" stroke="#0000FF"/>
<text x="1077" y="47" dy="0.76em" text-anchor="start" font-family="Calibri" font-size="9.67741935483871" opacity="1" fill="#000000">
Classic ABC
</text>
<text x="1077" y="62" dy="0.76em" text-anchor="start" font-family="Calibri" font-size="9.67741935483871" opacity="1" fill="#000000">
Reinforcement ABC
</text>
<text x="1077" y="77" dy="0.76em" text-anchor="start" font-family="Calibri" font-size="9.67741935483871" opacity="1" fill="#000000">
VS-RABC
</text>
<rect x="1059" y="51" width="15" height="1" opacity="1" fill="none" stroke="#000000"/>
<rect x="1059" y="66" width="15" height="1" opacity="1" fill="none" stroke="#FF0000"/>
<rect x="1059" y="81" width="15" height="1" opacity="1" fill="none" stroke="#00FF00"/>
</svg>
